<svg id="Layer_1" data-name="Layer 1" xmlns="http://www.w3.org/2000/svg" viewBox="0 0 371.27 362.21"><defs><style>.cls-1,.cls-2{stroke:#000;stroke-miterlimit:10;}.cls-2{fill:#fff;}</style></defs><title>d10</title><polygon class="cls-1" points="186 1.16 95.09 192.07 186 246.62 276.9 192.07 186 1.16"/><polygon class="cls-1" points="170.5 7.86 0.52 170.55 5.54 217.91 83.22 191.49 170.5 7.86"/><polygon class="cls-1" points="200.77 8.27 370.75 170.97 365.73 218.32 288.05 191.91 200.77 8.27"/><polygon class="cls-1" points="179.77 361.16 179.92 255.69 89.81 199.74 11.4 225.82 179.77 361.16"/><polygon class="cls-1" points="190.98 361.05 190.82 255.57 280.94 199.62 359.34 225.7 190.98 361.05"/><path class="cls-2" d="M212.56,250.42h11.36V220.36h-9.73V212.9a35.4,35.4,0,0,0,12.89-4.73H236v42.25h9.73v9.71H212.56Z" transform="translate(-64.17 -82.84)"/><path class="cls-2" d="M253.09,233.92c0-17.68,7.42-26.73,18.58-26.73s18.59,9.12,18.59,26.73-7.42,27.19-18.59,27.19S253.09,251.6,253.09,233.92Zm25.79,0c0-14.18-3.15-17.43-7.21-17.43s-7.2,3.25-7.2,17.43,3.16,17.89,7.2,17.89S278.88,248.1,278.88,233.92Z" transform="translate(-64.17 -82.84)"/></svg>