<svg id="Layer_1" data-name="Layer 1" xmlns="http://www.w3.org/2000/svg" viewBox="0 0 377.3 362.21"><defs><style>.cls-1,.cls-2{stroke:#000;stroke-miterlimit:10;}.cls-2{fill:#fff;}</style></defs><title>d100</title><polygon class="cls-1" points="189.01 1.16 98.1 192.07 189.01 246.62 279.92 192.07 189.01 1.16"/><polygon class="cls-1" points="173.51 7.86 0.54 170.55 8.56 217.91 86.24 191.49 173.51 7.86"/><polygon class="cls-1" points="203.79 8.27 376.76 170.97 368.74 218.32 291.06 191.91 203.79 8.27"/><polygon class="cls-1" points="182.78 361.16 182.94 255.69 92.82 199.74 14.42 225.82 182.78 361.16"/><polygon class="cls-1" points="193.99 361.05 193.84 255.57 283.96 199.62 362.36 225.7 193.99 361.05"/><path class="cls-2" d="M197.11,262.72h10.1V236h-8.65v-6.63a31.47,31.47,0,0,0,11.46-4.2h7.88v37.55h8.65v8.63H197.11Z" transform="translate(-61.15 -82.84)"/><path class="cls-2" d="M233.14,248.05c0-15.71,6.59-23.76,16.52-23.76s16.52,8.11,16.52,23.76-6.6,24.17-16.52,24.17S233.14,263.77,233.14,248.05Zm22.92,0c0-12.6-2.8-15.49-6.4-15.49s-6.41,2.89-6.41,15.49,2.81,15.9,6.41,15.9S256.06,260.65,256.06,248.05Z" transform="translate(-61.15 -82.84)"/><path class="cls-2" d="M271.54,248.05c0-15.71,6.59-23.76,16.52-23.76s16.52,8.11,16.52,23.76-6.6,24.17-16.52,24.17S271.54,263.77,271.54,248.05Zm22.92,0c0-12.6-2.8-15.49-6.4-15.49s-6.41,2.89-6.41,15.49,2.81,15.9,6.41,15.9S294.46,260.65,294.46,248.05Z" transform="translate(-61.15 -82.84)"/></svg>