<svg id="Layer_1" data-name="Layer 1" xmlns="http://www.w3.org/2000/svg" viewBox="0 0 346.01 361.23"><defs><style>.cls-1{stroke:#000;stroke-miterlimit:10;}.cls-2{fill:#fff;}</style></defs><title>d12</title><polygon class="cls-1" points="173.03 54.84 53.09 141.98 98.9 282.97 247.15 282.97 292.96 141.98 173.03 54.84"/><polygon class="cls-1" points="66.54 35.53 12.9 118.55 46.36 130.32 166.3 43.18 165.44 0.97 66.54 35.53"/><polygon class="cls-1" points="278.73 35.26 334.05 118.27 298.91 130.05 178.97 42.91 179.83 0.7 278.73 35.26"/><polygon class="cls-1" points="345.5 231.27 337.7 133.86 304.11 144.97 258.3 285.96 283.8 319.61 345.5 231.27"/><polygon class="cls-1" points="0.51 230.02 8.31 132.62 41.91 143.72 87.72 284.71 62.21 318.36 0.51 230.02"/><polygon class="cls-1" points="171.34 360.7 268.16 324.95 248.01 295.75 98.08 295.75 73.96 327.04 171.34 360.7"/><path class="cls-2" d="M208.15,273.15h13.07v-34.6H210V230a40.69,40.69,0,0,0,14.84-5.44h10.2v48.63h11.2v11.17H208.15Z" transform="translate(-76.98 -76.32)"/><path class="cls-2" d="M254.81,276.38c15.22-14.38,25.94-24.6,25.94-33.16,0-5.78-3.21-9-8.47-9-4.25,0-7.63,2.92-10.62,6.08l-7.5-7.47c5.88-6.29,11.46-9.47,20-9.47,11.79,0,19.84,7.52,19.84,19.05,0,10.07-9.41,20.8-19.2,30.93,3.08-.35,7.25-.69,10-.69h12v11.64H254.81Z" transform="translate(-76.98 -76.32)"/></svg>