<svg id="Layer_1" data-name="Layer 1" xmlns="http://www.w3.org/2000/svg" viewBox="0 0 340.08 365.11"><defs><style>.cls-1,.cls-2,.cls-3{stroke:#000;stroke-miterlimit:10;}.cls-2{fill:none;}.cls-3{fill:#fff;}</style></defs><title>d20</title><polygon class="cls-1" points="190.05 82.27 280.48 238.9 332.53 94.81 190.05 82.27"/><polygon class="cls-1" points="9.77 94.81 152.25 82.27 61.82 238.9 9.77 94.81"/><path class="cls-2" d="M89.23,170l52.05,144.1Z" transform="translate(-79.46 -75.18)"/><polyline class="cls-1" points="339.61 119.3 290.23 251.18 336.94 275.62 339.13 122.5"/><polygon class="cls-1" points="81.01 268.3 261.29 268.3 171.04 364.38 81.01 268.3"/><polyline class="cls-1" points="286.2 264.19 194.74 358.34 331.92 288.85 285.22 264.41"/><polyline class="cls-1" points="55.9 264.19 147.8 358.47 10.18 288.85 56.88 264.41"/><polygon class="cls-1" points="163.6 67.23 21.11 79.77 163.6 0.85 163.6 67.23"/><polygon class="cls-1" points="179.52 67.23 322 79.77 179.52 0.85 179.52 67.23"/><polygon class="cls-1" points="170.04 80.25 70.04 253.46 270.04 253.46 170.04 80.25"/><polyline class="cls-1" points="0.47 119.3 49.85 251.18 3.14 275.62 0.95 122.5"/><path class="cls-3" d="M213.51,282.58c11.64-11,19.84-18.82,19.84-25.36,0-4.42-2.46-6.86-6.48-6.86-3.25,0-5.84,2.23-8.12,4.65L213,249.3c4.5-4.82,8.77-7.25,15.31-7.25,9,0,15.16,5.75,15.16,14.57,0,7.7-7.19,15.91-14.67,23.65,2.35-.26,5.54-.52,7.65-.52h9.21v8.89H213.51Z" transform="translate(-79.46 -75.18)"/><path class="cls-3" d="M251.51,265.58c0-15.56,6.53-23.53,16.36-23.53s16.36,8,16.36,23.53-6.53,23.93-16.36,23.93S251.51,281.14,251.51,265.58Zm22.7,0c0-12.48-2.78-15.34-6.34-15.34s-6.34,2.86-6.34,15.34,2.77,15.74,6.34,15.74S274.21,278.05,274.21,265.58Z" transform="translate(-79.46 -75.18)"/></svg>