<svg id="Layer_1" data-name="Layer 1" xmlns="http://www.w3.org/2000/svg" viewBox="0 0 361 361"><defs><style>.cls-1{stroke:#000;stroke-miterlimit:10;}.cls-2{fill:#fff;}</style></defs><title>d6</title><rect class="cls-1" x="0.5" y="0.5" width="360" height="360"/><path class="cls-2" d="M209,254.72c0-43.51,22.58-63.09,47.06-63.09a46.68,46.68,0,0,1,34,14L275.8,221.76c-3.95-4.48-11.25-8.39-18.05-8.39-13.53,0-24.2,10.33-24.2,41.35,0,28.9,9.07,37.47,18.9,37.47,7.95,0,14.66-5.62,14.66-18.77,0-12.31-6.49-17-15.28-17-6.08,0-12.83,3.39-18.11,12.55l-1.21-17.6c6-8.82,16.86-14,24.51-14,19.93,0,34.68,11.32,34.68,36,0,24.21-17.62,39-38.71,39C230.44,312.43,209,295.59,209,254.72Z" transform="translate(-69.5 -69.5)"/></svg>