<svg id="Layer_1" data-name="Layer 1" xmlns="http://www.w3.org/2000/svg" viewBox="0 0 291.61 346.53"><defs><style>.cls-1{stroke:#000;stroke-miterlimit:10;}.cls-2{fill:#fff;}</style></defs><title>d6</title><polygon class="cls-1" points="144.62 0.59 2.35 91.65 144.62 191.24 286.9 91.65 144.62 0.59"/><polygon class="cls-1" points="0.5 251.69 139.93 345.59 139.93 200.47 0.5 106.57 0.5 251.69"/><polygon class="cls-1" points="291.11 106.57 151.68 200.47 151.68 345.59 291.11 251.69 291.11 106.57"/><path class="cls-2" d="M226,171.68c0-24.31,12.61-35.26,26.29-35.26a26.07,26.07,0,0,1,19,7.84l-7.95,9a14.61,14.61,0,0,0-10.09-4.69c-7.57,0-13.53,5.78-13.53,23.11,0,16.15,5.07,20.94,10.56,20.94,4.45,0,8.2-3.14,8.2-10.49,0-6.88-3.63-9.48-8.54-9.48-3.4,0-7.17,1.89-10.12,7l-.68-9.83c3.36-4.93,9.42-7.81,13.7-7.81,11.14,0,19.38,6.32,19.38,20.11,0,13.53-9.85,21.8-21.63,21.8C238,203.93,226,194.52,226,171.68Z" transform="translate(-104.61 -72.91)"/></svg>