<svg id="Layer_1" data-name="Layer 1" xmlns="http://www.w3.org/2000/svg" viewBox="0 0 288.92 345.58"><defs><style>.cls-1,.cls-2{stroke:#000;stroke-miterlimit:10;}.cls-2{fill:#fff;}</style></defs><title>d8</title><polygon class="cls-1" points="144.62 9.01 7.7 246.15 281.54 246.15 144.62 9.01"/><polygon class="cls-1" points="137.63 2.98 0.71 240.13 11.71 124.03 137.63 2.98"/><polygon class="cls-1" points="144.62 344.98 7.7 254.36 281.54 254.36 144.62 344.98"/><path class="cls-2" d="M228.12,231.84c0-7.25,4.61-11.76,10.3-14.79v-.38c-4.68-3.48-8.1-7.87-8.1-14.17,0-10.25,8.08-16.64,19.27-16.64,11,0,18.32,6.52,18.32,16.53,0,5.74-3.75,10.4-7.87,13.17v.38c5.75,3.15,10.39,7.76,10.39,15.76,0,9.51-8.54,16.68-21.3,16.68C237.1,248.38,228.12,241.64,228.12,231.84Zm29.35-.61c0-5.33-5.14-7.34-12.71-10.51a13.2,13.2,0,0,0-4.62,9.56c0,5.28,4.22,8.41,9.3,8.41C254,238.69,257.47,236.25,257.47,231.23Zm-.88-27.9c0-4.68-2.71-7.78-7.31-7.78-3.69,0-6.7,2.31-6.7,6.95,0,4.89,4.19,7.24,10.32,9.69C255.27,209.39,256.59,206.49,256.59,203.33Z" transform="translate(-105.16 -61.44)"/><polygon class="cls-1" points="151.29 2.81 288.21 239.96 277.21 123.86 151.29 2.81"/></svg>