<svg id="Layer_1" data-name="Layer 1" xmlns="http://www.w3.org/2000/svg" viewBox="0 0 299.66 361.99"><defs><style>.cls-1,.cls-2{stroke:#000;stroke-miterlimit:10;}.cls-2{fill:#fff;}</style></defs><title>d10</title><polygon class="cls-1" points="149.41 8.39 12.49 245.54 286.32 245.54 149.41 8.39"/><polygon class="cls-1" points="162.24 1.43 299.16 238.57 299.16 80.47 162.24 1.43"/><polygon class="cls-1" points="137.42 1.37 0.5 238.51 0.5 80.42 137.42 1.37"/><polygon class="cls-1" points="149.41 361.37 12.49 258.75 286.32 258.75 149.41 361.37"/><path class="cls-2" d="M228.12,231.84c0-7.25,4.61-11.76,10.3-14.79v-.38c-4.68-3.48-8.1-7.87-8.1-14.17,0-10.25,8.08-16.64,19.27-16.64,11,0,18.32,6.52,18.32,16.53,0,5.74-3.75,10.4-7.87,13.17v.38c5.75,3.15,10.39,7.76,10.39,15.76,0,9.51-8.54,16.68-21.3,16.68C237.1,248.38,228.12,241.64,228.12,231.84Zm29.35-.61c0-5.33-5.14-7.34-12.71-10.51a13.2,13.2,0,0,0-4.62,9.56c0,5.28,4.22,8.41,9.3,8.41C254,238.69,257.47,236.25,257.47,231.23Zm-.88-27.9c0-4.68-2.71-7.78-7.31-7.78-3.69,0-6.7,2.31-6.7,6.95,0,4.89,4.19,7.24,10.32,9.69C255.27,209.39,256.59,206.49,256.59,203.33Z" transform="translate(-100.37 -62.05)"/></svg>